<svg width="65" height="68" viewBox="0 0 65 68" fill="none" xmlns="http://www.w3.org/2000/svg">
<path d="M64.2857 23.625H42.8571V67.5H35.7143V47.25H28.5714V67.5H21.4286V23.625H0V16.875H64.2857V23.625ZM32.1429 0C34.0373 0 35.8541 0.711158 37.1936 1.97703C38.5332 3.2429 39.2857 4.95979 39.2857 6.75C39.2857 8.54021 38.5332 10.2571 37.1936 11.523C35.8541 12.7888 34.0373 13.5 32.1429 13.5C30.2485 13.5 28.4316 12.7888 27.0921 11.523C25.7526 10.2571 25 8.54021 25 6.75C25 3.00375 28.1786 0 32.1429 0Z" fill="#EC5863"/>
</svg>
