<svg width="67" height="68" viewBox="0 0 67 68" fill="none" xmlns="http://www.w3.org/2000/svg">
<path d="M33.3578 0C27.5202 0 24.0259 0.830769 21.8049 1.86663C20.6929 2.38587 19.9035 2.93106 19.3725 3.48923C18.8388 4.0474 18.5025 4.86779 18.5025 4.86779C18.4153 5.07629 18.3574 5.29445 18.3301 5.51683L16.8512 23.2849C16.8318 23.3939 16.8707 23.5705 16.8512 23.6899L16.6789 25.4761C16.6627 25.6375 16.6627 25.8001 16.6789 25.9615C16.6789 34.5288 24.1844 41.5385 33.3578 41.5385C42.5312 41.5385 50.0367 34.5288 50.0367 25.9615V25.5565C50.0371 25.5297 50.0371 25.5029 50.0367 25.4761L48.3855 5.51683C48.3582 5.29445 48.3003 5.07629 48.2131 4.86779C48.2131 4.86779 47.8768 4.0474 47.343 3.48923C46.8121 2.92846 46.0226 2.38327 44.9107 1.86663C42.6896 0.828173 39.1954 0 33.3578 0ZM33.3578 41.5385C15.011 41.5385 0 49.6021 0 56.8713V67.5H66.7156V56.8713C66.7156 49.9656 53.1445 42.3588 36.0514 41.6189C35.1548 41.5637 34.2564 41.5368 33.3578 41.5385ZM33.3578 5.19231C38.6394 5.19231 41.2775 5.97115 42.3922 6.49038C42.7647 6.66433 42.8092 6.73183 42.9148 6.8149L44.0434 20.1202C41.486 20.2656 38.0001 20.7692 33.3578 20.7692C28.7155 20.7692 25.2324 20.2656 22.6722 20.1202L23.8008 6.8149C23.9036 6.73183 23.9509 6.66433 24.3234 6.49038C25.4381 5.97115 28.0761 5.19231 33.3578 5.19231ZM31.0978 7.78846V10.8727H27.7982V15.0914H31.1006V18.1731H35.615V15.0888H38.9174V10.8727H35.615V7.78846H31.1006H31.0978ZM25.0183 47.3798L32.143 62.3077H5.55963V56.8713C5.55963 54.9372 12.6482 49.2724 25.0183 47.3798ZM41.6972 47.3798C54.0674 49.275 61.1559 54.9372 61.1559 56.8713V62.3077H34.5726L41.6972 47.3798Z" fill="#EC5863"/>
</svg>
