<svg width="88" height="68" viewBox="0 0 88 68" fill="none" xmlns="http://www.w3.org/2000/svg">
<path d="M24.0428 0C17.6663 0 11.5509 2.34564 7.04199 6.52091C2.53308 10.6962 0 16.3591 0 22.2638C0 24.2878 0.393429 26.3118 0.961714 28.3357H18.7971L24.3488 14.6941C25.6603 11.4557 30.8186 11.1319 32.4797 14.6941L41.5286 36.4317L44.1077 30.6835C44.676 29.3477 46.206 28.3357 48.0857 28.3357H86.4668C87.0351 26.3118 87.4285 24.2878 87.4285 22.2638C87.4285 16.3591 84.8955 10.6962 80.3865 6.52091C75.8776 2.34564 69.7622 0 63.3857 0C55.2548 0 48.0857 3.76461 43.7143 9.47223C39.3428 3.76461 32.1737 0 24.0428 0ZM4.37143 34.4077C3.21205 34.4077 2.10016 34.8342 1.28036 35.5933C0.46056 36.3524 0 37.382 0 38.4556C0 39.5292 0.46056 40.5588 1.28036 41.318C2.10016 42.0771 3.21205 42.5036 4.37143 42.5036H15.0377L39.3428 64.7674C43.7143 68.4106 43.7143 68.4106 48.0857 64.7674L72.3908 42.5036H83.0571C84.2165 42.5036 85.3284 42.0771 86.1482 41.318C86.968 40.5588 87.4285 39.5292 87.4285 38.4556C87.4285 37.382 86.968 36.3524 86.1482 35.5933C85.3284 34.8342 84.2165 34.4077 83.0571 34.4077H49.8343L45.7688 43.718C44.0203 47.8064 38.9931 47.2397 37.3757 43.8394L28.4143 22.2638L24.2177 31.6955C23.562 33.2338 22.0757 34.4077 20.1086 34.4077H4.37143Z" fill="#EC5863"/>
</svg>
