<svg width="548" height="371" viewBox="0 0 548 371" fill="none" xmlns="http://www.w3.org/2000/svg">
<path opacity="0.6" d="M318.251 65.6403C283.183 64.497 249.758 53.8767 217.888 42.2596C186.019 30.6425 154.431 17.7687 120.185 11.6129C98.1664 7.64923 72.9852 7.09176 55.2475 18.1656C38.1746 28.8189 32.6599 47.2107 29.6935 64.2749C27.4625 77.1156 26.1682 90.6272 32.2671 102.651C36.5126 110.994 44.0469 118.009 49.2594 126.003C67.3899 153.815 54.5726 188.114 34.9212 215.293C25.7048 228.048 15.0129 240.185 7.90167 253.749C0.790478 267.312 -2.50323 282.85 3.72158 296.683C9.89099 310.384 24.5868 320.692 40.5114 327.935C72.8542 342.632 110.964 346.837 148.126 349.246C230.388 354.523 313.094 352.236 395.572 349.95C426.097 349.099 456.758 348.244 486.784 343.808C503.459 341.347 520.678 337.445 532.785 328.024C548.151 316.062 551.963 295.814 541.664 280.814C524.39 255.662 476.631 249.412 464.554 222.417C457.911 207.559 464.735 191.005 474.395 177.224C495.109 147.664 529.839 121.727 531.667 87.9343C532.926 64.7237 516.231 41.4848 490.415 30.5008C463.36 18.9781 425.84 20.4332 405.882 39.477C385.329 59.0971 349.209 66.6465 318.251 65.6403Z" fill="#587EEC"/>
<path d="M122.436 342.963C122.436 342.963 94.7368 323.319 89.5042 298.332C87.3822 287.837 81.6903 278.271 73.2824 271.068C69.2602 267.679 64.9159 264.643 60.304 261.997" stroke="#9AB1F3" stroke-width="2" stroke-miterlimit="10"/>
<path d="M56.9146 246.256C59.342 249.336 60.4399 262.389 60.4399 262.389C60.4399 262.389 47.4615 257.594 45.029 254.519C43.8609 253.04 43.3668 251.187 43.6554 249.367C43.9439 247.546 44.9915 245.908 46.5676 244.813C48.1437 243.717 50.1193 243.253 52.0597 243.524C54.0002 243.795 55.7465 244.777 56.9146 246.256Z" fill="#587EEC"/>
<path d="M80.1922 256.498C80.444 260.32 73.8113 271.838 73.8113 271.838C73.8113 271.838 65.6878 261.189 65.431 257.367C65.3333 255.545 66.0049 253.76 67.3003 252.4C68.5957 251.039 70.4105 250.212 72.3515 250.097C74.2925 249.983 76.2034 250.591 77.6701 251.789C79.1367 252.987 80.0411 254.679 80.1872 256.498H80.1922Z" fill="#587EEC"/>
<path d="M102.755 285.94C100.921 289.36 88.9905 296.164 88.9905 296.164C88.9905 296.164 87.7163 283.124 89.5495 279.704C90.4519 278.095 91.9914 276.884 93.8368 276.329C95.6821 275.775 97.6857 275.922 99.4164 276.739C101.147 277.557 102.467 278.979 103.091 280.699C103.715 282.42 103.594 284.302 102.755 285.94Z" fill="#587EEC"/>
<path d="M114.484 311.811C113.29 315.472 102.759 324.065 102.759 324.065C102.759 324.065 99.1484 311.418 100.342 307.752C100.916 305.993 102.211 304.52 103.943 303.656C105.674 302.793 107.701 302.61 109.576 303.148C111.451 303.687 113.022 304.902 113.942 306.526C114.863 308.15 115.058 310.051 114.484 311.811Z" fill="#587EEC"/>
<path d="M61.8047 281.098C65.8337 281.608 78.5704 276.213 78.5704 276.213C78.5704 276.213 67.8231 267.86 63.7739 267.35C61.8305 267.105 59.8629 267.594 58.304 268.71C56.7452 269.826 55.7227 271.477 55.4616 273.3C55.2004 275.123 55.722 276.969 56.9116 278.431C58.1012 279.894 59.8613 280.853 61.8047 281.098Z" fill="#587EEC"/>
<path d="M75.9314 311.196C79.9604 310.549 90.3702 301.833 90.3702 301.833C90.3702 301.833 77.4473 296.882 73.4233 297.529C72.4599 297.677 71.5373 298.003 70.7088 298.487C69.8802 298.971 69.1622 299.605 68.5961 300.351C68.0299 301.097 67.6269 301.941 67.4103 302.834C67.1937 303.727 67.1678 304.651 67.3341 305.554C67.5003 306.456 67.8555 307.319 68.379 308.092C68.9026 308.865 69.5842 309.533 70.3844 310.058C71.1846 310.582 72.0877 310.953 73.0415 311.148C73.9953 311.344 74.9809 311.36 75.9414 311.196H75.9314Z" fill="#587EEC"/>
<path d="M93.936 338.687C98.0204 338.687 109.856 331.747 109.856 331.747C109.856 331.747 98.0153 324.816 93.9309 324.816C91.9701 324.816 90.0896 325.547 88.7031 326.848C87.3166 328.148 86.5377 329.912 86.5377 331.752C86.5377 333.591 87.3166 335.355 88.7031 336.656C90.0896 337.956 91.9701 338.687 93.9309 338.687H93.936Z" fill="#587EEC"/>
<path d="M391.523 173.062C391.523 173.062 408.596 144.692 434.331 136.519C445.138 133.153 454.489 126.59 460.983 117.816C464.029 113.621 466.657 109.172 468.835 104.526" stroke="#9AB1F3" stroke-width="2" stroke-miterlimit="10"/>
<path d="M484.991 99.3294C482.06 101.994 468.417 104.753 468.417 104.753C468.417 104.753 471.766 92.0445 474.697 89.3753C476.112 88.1327 477.99 87.461 479.928 87.5047C481.865 87.5484 483.707 88.3041 485.056 89.609C486.406 90.9139 487.155 92.6637 487.143 94.4817C487.131 96.2998 486.358 98.0406 484.991 99.3294Z" fill="#587EEC"/>
<path d="M477.275 122.304C473.246 123.05 460.218 118.411 460.218 118.411C460.218 118.411 470.391 109.435 474.395 108.702C475.356 108.502 476.35 108.484 477.319 108.65C478.288 108.815 479.212 109.16 480.037 109.665C480.861 110.17 481.57 110.824 482.122 111.589C482.673 112.355 483.056 113.216 483.248 114.122C483.44 115.028 483.437 115.96 483.239 116.865C483.041 117.77 482.653 118.629 482.097 119.391C481.54 120.154 480.827 120.804 479.999 121.304C479.171 121.804 478.245 122.144 477.275 122.304Z" fill="#587EEC"/>
<path d="M449.193 147.192C445.336 145.94 436.567 135.754 436.567 135.754C436.567 135.754 450.165 132.834 454.033 134.086C454.962 134.376 455.821 134.835 456.56 135.438C457.298 136.041 457.902 136.776 458.335 137.599C458.768 138.423 459.023 139.319 459.084 140.236C459.145 141.152 459.012 142.071 458.691 142.939C458.371 143.807 457.87 144.606 457.217 145.291C456.565 145.976 455.773 146.532 454.89 146.928C454.006 147.323 453.048 147.55 452.07 147.596C451.092 147.641 450.114 147.504 449.193 147.192Z" fill="#587EEC"/>
<path d="M423.388 161.535C419.359 160.911 408.903 152.242 408.903 152.242C408.903 152.242 421.791 147.206 425.815 147.829C427.752 148.128 429.483 149.136 430.627 150.632C431.771 152.128 432.235 153.99 431.916 155.806C431.598 157.623 430.523 159.247 428.928 160.32C427.334 161.394 425.35 161.829 423.413 161.53L423.388 161.535Z" fill="#587EEC"/>
<path d="M448.841 108.476C448.836 112.307 456.244 123.423 456.244 123.423C456.244 123.423 463.642 112.321 463.642 108.495C463.668 107.569 463.496 106.648 463.136 105.786C462.776 104.923 462.236 104.137 461.547 103.474C460.858 102.811 460.035 102.284 459.126 101.924C458.216 101.564 457.239 101.378 456.252 101.378C455.265 101.378 454.287 101.564 453.378 101.924C452.468 102.284 451.645 102.811 450.956 103.474C450.267 104.137 449.727 104.923 449.367 105.786C449.007 106.648 448.835 107.569 448.861 108.495L448.841 108.476Z" fill="#587EEC"/>
<path d="M418.91 125.606C420.129 129.263 430.725 137.79 430.725 137.79C430.725 137.79 434.251 125.12 433.022 121.463C432.385 119.769 431.071 118.373 429.359 117.569C427.646 116.765 425.668 116.615 423.84 117.152C422.013 117.689 420.478 118.871 419.561 120.447C418.643 122.024 418.414 123.874 418.92 125.606H418.91Z" fill="#587EEC"/>
<path d="M392.284 146.001C392.828 149.78 401.732 159.876 401.732 159.876C401.732 159.876 407.478 147.947 406.934 144.154C406.826 143.235 406.523 142.345 406.044 141.537C405.564 140.729 404.917 140.02 404.14 139.45C403.364 138.88 402.473 138.462 401.522 138.22C400.571 137.978 399.577 137.916 398.6 138.039C397.623 138.163 396.683 138.468 395.833 138.937C394.984 139.406 394.243 140.03 393.654 140.772C393.066 141.514 392.641 142.359 392.406 143.257C392.171 144.155 392.129 145.088 392.284 146.001Z" fill="#587EEC"/>
<path opacity="0.25" d="M484.991 99.3294C482.06 101.994 468.417 104.753 468.417 104.753C468.417 104.753 471.766 92.0445 474.697 89.3753C476.112 88.1327 477.99 87.461 479.928 87.5047C481.865 87.5484 483.707 88.3041 485.056 89.609C486.406 90.9139 487.155 92.6637 487.143 94.4817C487.131 96.2998 486.358 98.0406 484.991 99.3294Z" fill="black"/>
<path opacity="0.25" d="M477.275 122.304C473.246 123.05 460.218 118.411 460.218 118.411C460.218 118.411 470.391 109.435 474.395 108.702C475.356 108.502 476.35 108.484 477.319 108.65C478.288 108.815 479.212 109.16 480.037 109.665C480.861 110.17 481.57 110.824 482.122 111.589C482.673 112.355 483.056 113.216 483.248 114.122C483.44 115.028 483.437 115.96 483.239 116.865C483.041 117.77 482.653 118.629 482.097 119.391C481.54 120.154 480.827 120.804 479.999 121.304C479.171 121.804 478.245 122.144 477.275 122.304Z" fill="black"/>
<path opacity="0.25" d="M449.193 147.192C445.336 145.94 436.567 135.754 436.567 135.754C436.567 135.754 450.165 132.834 454.033 134.086C454.962 134.376 455.821 134.835 456.56 135.438C457.298 136.041 457.902 136.776 458.335 137.599C458.768 138.423 459.023 139.319 459.084 140.236C459.145 141.152 459.012 142.071 458.691 142.939C458.371 143.807 457.87 144.606 457.217 145.291C456.565 145.976 455.773 146.532 454.89 146.928C454.006 147.323 453.048 147.55 452.07 147.596C451.092 147.641 450.114 147.504 449.193 147.192Z" fill="black"/>
<path opacity="0.25" d="M423.388 161.535C419.359 160.911 408.903 152.242 408.903 152.242C408.903 152.242 421.791 147.206 425.815 147.829C427.752 148.128 429.483 149.136 430.627 150.632C431.771 152.128 432.235 153.99 431.916 155.806C431.598 157.623 430.523 159.247 428.928 160.32C427.334 161.394 425.35 161.829 423.413 161.53L423.388 161.535Z" fill="black"/>
<path opacity="0.25" d="M448.841 108.476C448.836 112.307 456.244 123.423 456.244 123.423C456.244 123.423 463.642 112.321 463.642 108.495C463.668 107.569 463.496 106.648 463.136 105.786C462.776 104.923 462.236 104.137 461.547 103.474C460.858 102.811 460.035 102.284 459.126 101.924C458.216 101.564 457.239 101.378 456.252 101.378C455.265 101.378 454.287 101.564 453.378 101.924C452.468 102.284 451.645 102.811 450.956 103.474C450.267 104.137 449.727 104.923 449.367 105.786C449.007 106.648 448.835 107.569 448.861 108.495L448.841 108.476Z" fill="black"/>
<path opacity="0.25" d="M418.91 125.606C420.129 129.263 430.725 137.79 430.725 137.79C430.725 137.79 434.251 125.12 433.022 121.463C432.385 119.769 431.071 118.373 429.359 117.569C427.646 116.765 425.668 116.615 423.84 117.152C422.013 117.689 420.478 118.871 419.561 120.447C418.643 122.024 418.414 123.874 418.92 125.606H418.91Z" fill="black"/>
<path opacity="0.25" d="M392.284 146.001C392.828 149.78 401.732 159.876 401.732 159.876C401.732 159.876 407.478 147.947 406.934 144.154C406.826 143.235 406.523 142.345 406.044 141.537C405.564 140.729 404.917 140.02 404.14 139.45C403.364 138.88 402.473 138.462 401.522 138.22C400.571 137.978 399.577 137.916 398.6 138.039C397.623 138.163 396.683 138.468 395.833 138.937C394.984 139.406 394.243 140.03 393.654 140.772C393.066 141.514 392.641 142.359 392.406 143.257C392.171 144.155 392.129 145.088 392.284 146.001Z" fill="black"/>
<path d="M392.505 172.5C392.505 172.5 395.859 140.072 415.833 122.828C424.258 115.642 429.972 106.087 432.12 95.5972C433.098 90.6104 433.585 85.5499 433.576 80.4794" stroke="#9AB1F3" stroke-width="2" stroke-miterlimit="10"/>
<path d="M446.096 69.5379C444.585 73.0906 433.284 80.8007 433.284 80.8007C433.284 80.8007 430.856 67.908 432.382 64.3553C433.117 62.6494 434.544 61.2871 436.349 60.5681C438.155 59.8492 440.191 59.8324 442.009 60.5215C443.828 61.2107 445.28 62.5492 446.046 64.2428C446.813 65.9363 446.831 67.8461 446.096 69.5521V69.5379Z" fill="#587EEC"/>
<path d="M448.972 93.4996C445.633 95.7012 431.697 96.424 431.697 96.424C431.697 96.424 437.126 84.3581 440.465 82.1565C441.257 81.6006 442.16 81.1993 443.12 80.9766C444.08 80.7538 445.078 80.714 446.055 80.8596C447.032 81.0051 447.968 81.3331 448.807 81.824C449.647 82.3149 450.372 82.9588 450.942 83.7176C451.511 84.4764 451.912 85.3346 452.121 86.2414C452.331 87.1482 452.344 88.0852 452.16 88.9969C451.976 89.9086 451.6 90.7764 451.052 91.549C450.504 92.3217 449.797 92.9833 448.972 93.4949V93.4996Z" fill="#587EEC"/>
<path d="M434.034 126.938C429.965 127.26 417.546 121.269 417.546 121.269C417.546 121.269 428.726 113.427 432.795 113.106C434.749 112.951 436.689 113.532 438.187 114.719C439.685 115.906 440.619 117.603 440.783 119.436C440.947 121.269 440.328 123.088 439.063 124.494C437.797 125.899 435.988 126.775 434.034 126.929V126.938Z" fill="#587EEC"/>
<path d="M416.654 149.847C412.701 150.791 399.385 146.884 399.385 146.884C399.385 146.884 408.989 137.384 412.942 136.42C414.84 135.958 416.856 136.223 418.546 137.155C420.237 138.088 421.463 139.612 421.955 141.392C422.447 143.173 422.165 145.064 421.171 146.649C420.177 148.235 418.552 149.385 416.654 149.847Z" fill="#587EEC"/>
<path d="M417.007 91.6665C418.659 95.1673 430.212 102.532 430.212 102.532C430.212 102.532 432.176 89.5689 430.524 86.0682C429.701 84.4304 428.228 83.1595 426.419 82.527C424.61 81.8946 422.609 81.9509 420.844 82.6838C419.079 83.4167 417.69 84.7681 416.973 86.4492C416.256 88.1304 416.268 90.0079 417.007 91.6807V91.6665Z" fill="#587EEC"/>
<path d="M397.043 118.699C399.737 121.576 413.104 125.346 413.104 125.346C413.104 125.346 410.847 112.425 408.153 109.548C407.517 108.849 406.739 108.276 405.865 107.861C404.991 107.447 404.037 107.199 403.06 107.133C402.083 107.067 401.102 107.184 400.173 107.477C399.245 107.77 398.388 108.233 397.652 108.839C396.915 109.446 396.315 110.183 395.886 111.009C395.456 111.835 395.205 112.732 395.149 113.65C395.092 114.567 395.23 115.486 395.556 116.353C395.881 117.22 396.386 118.017 397.043 118.699Z" fill="#587EEC"/>
<path d="M381.486 147.48C383.621 150.74 396.116 156.574 396.116 156.574C396.116 156.574 396.222 143.483 394.102 140.218C393.046 138.711 391.407 137.649 389.53 137.257C387.654 136.864 385.688 137.173 384.05 138.118C382.413 139.062 381.232 140.568 380.758 142.316C380.284 144.064 380.554 145.916 381.511 147.48H381.486Z" fill="#587EEC"/>
<path d="M366.82 45.5053C367.656 42.6282 368.664 39.7369 369.369 36.822C368.523 39.7369 367.51 42.6376 366.82 45.5053Z" fill="url(#paint0_linear_4_6)"/>
<path d="M363.073 73.2181C363.003 73.1047 362.953 72.9914 362.897 72.8874C362.897 72.8402 362.847 72.8024 362.827 72.7551C362.717 72.8037 362.604 72.8463 362.489 72.8827C362.268 72.963 362.041 73.0386 361.809 73.1C361.578 73.1614 361.482 73.1945 361.306 73.2323C361.16 73.2795 361.01 73.3159 360.857 73.341L360.898 73.426C361.084 73.3882 361.265 73.3551 361.452 73.3079L361.502 73.8937C361.714 73.8937 361.91 73.8654 362.101 73.8654C362.192 73.8607 362.283 73.8607 362.373 73.8654C362.766 73.8654 363.109 73.8654 363.381 73.8654C363.275 73.6528 363.164 73.4307 363.073 73.2181ZM465.309 225.875C462.942 222.885 458.218 190.788 458.218 190.788C458.218 190.788 448.926 167.964 451.46 158.856C453.993 149.747 444.54 126.442 444.54 126.442C444.54 126.442 438.295 123.896 437.957 120.116C437.957 120.116 412.459 112.558 411.265 106.888C410.298 102.24 394.485 98.9042 388.804 97.8507C387.071 91.2934 385.329 85.1754 384.044 81.8353C383.697 80.7959 383.37 79.8983 383.067 79.1897C380.897 73.9929 374.188 73.5205 369.323 73.9362C369.113 73.0505 368.721 72.2115 368.17 71.4654C368.09 71.2089 367.93 70.9804 367.712 70.8087C367.607 70.7252 367.496 70.6494 367.379 70.5819C367.291 70.4288 367.175 70.2913 367.037 70.1757C366.899 70.0589 366.747 69.9574 366.584 69.8733C366.467 69.8139 366.345 69.7618 366.221 69.7174C365.929 69.6131 365.627 69.5356 365.32 69.4859C364.961 69.4167 364.597 69.3725 364.232 69.3536C365.121 68.9889 365.913 68.4454 366.553 67.7615C366.989 67.2814 367.313 66.7215 367.505 66.1175C367.665 65.6151 367.736 65.0918 367.717 64.5679C367.586 64.7838 367.434 64.9878 367.264 65.1773C367.475 63.0845 366.297 60.9585 365.622 58.8751C364.804 56.1628 364.653 53.3118 365.179 50.5367C365.853 46.3509 367.525 42.1179 368.659 37.8566C368.661 37.833 368.661 37.8093 368.659 37.7857C369.253 35.6694 369.621 33.5029 369.757 31.3181C369.953 26.9103 368.749 22.512 366.815 18.4963C365.098 14.9389 362.565 11.4382 358.687 9.99255C355.806 8.90124 352.578 9.07604 349.476 8.89651C342.515 8.49022 335.878 6.1942 329.26 4.10605C322.642 2.0179 315.833 0.118726 308.868 0.482499C301.903 0.846272 294.736 3.99739 291.559 9.77996C290.551 11.5846 289.972 13.5925 288.769 15.2885C286.512 18.4869 282.473 20.0884 279.104 22.2947C275.735 24.5009 272.768 27.6332 271.55 31.3701C270.884 33.3834 270.79 35.5248 271.278 37.5826C271.387 38.0473 271.529 38.5049 271.701 38.9526C272.179 40.2009 272.924 41.3441 273.891 42.3116C274.621 43.0267 275.459 43.6365 276.379 44.121C277.535 44.7218 278.771 45.1731 280.056 45.4627C280.01 45.6045 279.965 45.7557 279.915 45.9021C279.834 46.143 279.764 46.3745 279.688 46.6344C279.522 47.2155 279.366 47.806 279.235 48.4013C279.23 48.4436 279.23 48.4865 279.235 48.5288C278.616 51.216 278.306 53.9575 278.308 56.7066C278.307 58.0068 278.378 59.3061 278.52 60.5995C280.534 79.7708 297.406 94.8933 318.251 95.876C318.966 95.909 319.686 95.9279 320.416 95.9279C320.749 95.9279 321.076 95.9279 321.424 95.9279C321.751 96.3342 322.073 96.75 322.38 97.1562C322.688 97.5625 322.97 97.9783 323.237 98.3846L322.506 97.6759L321.776 97.0476C321.578 97.3025 321.357 97.5411 321.116 97.761C320.64 97.6038 320.154 97.4744 319.661 97.3736C317.571 96.9389 314.388 96.7783 310.198 97.9641C306.345 99.046 301.636 101.271 296.126 105.499L269.278 120.617L254.754 128.904L249.521 140.903C249.521 140.903 245.588 155.161 241.211 171.498C241.04 171.545 240.874 171.593 240.708 171.649C240.353 171.611 239.997 171.593 239.64 171.593C237.101 171.587 234.658 172.505 232.825 174.153C230.992 175.801 229.911 178.052 229.809 180.432C221.106 190.353 220.613 200.274 222.658 204.828C222.843 205.255 223.076 205.662 223.353 206.042C224.692 207.857 227.195 212.534 229.734 217.518C229.668 217.929 229.628 218.274 229.608 218.533C229.603 218.618 229.603 218.704 229.608 218.789C229.608 218.789 231.118 240.194 226.082 246.331C224.979 247.668 225.145 249.426 226.082 251.372C229.457 258.374 242.798 267.723 242.798 267.723C242.798 267.723 258.798 267.643 267.712 266.731C267.687 267.572 267.667 268.408 267.646 269.225C267.445 277.484 267.445 284.405 267.445 284.405L267.113 293.064C267.113 293.064 264.091 311.314 262.58 316.346C261.628 319.502 262.726 348.722 263.683 370.203H421.328C423.181 357.495 420.567 318.883 420.567 318.883C420.567 318.883 418.084 308.9 417.994 300.198C417.989 300.188 417.986 300.178 417.986 300.167C417.986 300.157 417.989 300.146 417.994 300.137C417.994 299.376 417.994 298.634 418.024 297.907L419.167 297.869L421.222 297.803H421.408C421.408 297.803 421.459 297.623 421.574 297.33C421.846 296.601 422.217 295.907 422.677 295.266C423.554 294.052 424.924 292.861 426.983 292.781C428.122 292.738 429.884 291.874 431.874 290.598C431.887 290.601 431.901 290.601 431.914 290.598C437.267 287.201 444.343 280.932 446.061 279.902C448.423 278.485 459.734 269.036 459.734 269.036C459.734 269.036 461.421 267.033 463.219 264.619L463.285 264.534C465.521 261.511 467.898 257.896 467.314 256.758C466.307 254.717 467.989 249.837 467.989 249.837C473.241 240.818 467.676 228.866 465.309 225.875ZM367.923 80.5644C367.972 80.7055 368.002 80.8514 368.014 80.9991C367.888 80.8432 367.762 80.6778 367.636 80.5266L367.515 80.3755L367.43 80.2621L367.621 80.0164C367.621 80.0164 367.621 80.0164 367.621 80.0495C367.754 80.2027 367.856 80.3771 367.923 80.5644ZM366.231 76.3787C365.682 76.4826 365.249 76.5771 364.967 76.648C364.609 76.0527 364.267 75.4575 363.96 74.8527C364.767 75.2921 365.528 75.8031 366.231 76.3787ZM365.284 77.1251C365.283 77.1157 365.283 77.1062 365.284 77.0968L365.325 77.1251C365.531 77.2527 365.733 77.3755 365.919 77.5031C366.085 77.6165 366.236 77.7251 366.387 77.8385C366.287 78.0039 366.176 78.1739 366.065 78.3109C365.889 78.0511 365.722 77.8007 365.561 77.5409C365.461 77.4369 365.37 77.2952 365.284 77.1251ZM362.263 71.2953C363.236 71.2053 364.216 71.2053 365.189 71.2953C365.325 71.2953 365.445 71.3189 365.566 71.3378C365.839 71.3774 366.108 71.4423 366.367 71.5315C366.962 72.3126 367.329 73.2265 367.43 74.1819L367.158 74.2197L366.891 74.2669C366.387 74.3472 365.884 74.4275 365.491 74.5031L364.987 74.6023C364.317 74.7394 363.93 74.8433 363.914 74.848C363.849 74.7205 363.784 74.6023 363.713 74.4795C363.602 74.2764 363.486 74.0685 363.386 73.8654C363.285 73.6622 363.154 73.4307 363.048 73.2181C362.978 73.1047 362.927 72.9914 362.872 72.8874C362.872 72.8402 362.822 72.8024 362.801 72.7551C362.772 72.705 362.747 72.6529 362.726 72.5992C362.419 72.0134 362.137 71.4276 361.865 70.8512C361.834 70.7945 361.809 70.7331 361.784 70.6764L362.167 70.6528V70.7757L362.263 71.2953ZM242.103 364.364C242.062 357.329 241.518 349.718 240.007 342.575C239.363 339.537 238.698 336.5 238.023 333.514C237.852 332.768 237.686 332.031 237.52 331.294L235.968 331.487H235.827C231.597 312.774 227.175 296.286 227.175 296.286C227.175 296.286 218.392 264.827 219.409 262.318C219.54 261.992 219.374 261.114 219.001 259.824C216.876 252.671 208.002 232.962 204.9 226.225C204.9 226.196 204.875 226.163 204.864 226.14C204.361 225.01 203.998 224.25 203.887 224.028L204.618 213.975L204.658 213.37L204.754 212.085L204.713 212.052L204.754 211.456C204.754 211.456 197.089 205.56 184.105 201.304C183.601 201.134 183.068 200.968 182.539 200.808C183.188 196.74 184.05 192.148 185.173 187.674C185.279 187.225 185.394 186.791 185.515 186.351C185.621 185.912 185.742 185.487 185.863 185.057C186.054 184.358 186.261 183.668 186.472 182.988C187.172 182.78 187.862 182.548 188.542 182.303L188.804 182.208C197.18 179.151 204.091 173.35 208.258 165.88C212.424 158.41 213.565 149.777 211.467 141.579C210.271 136.93 208.063 132.563 204.98 128.752C204.749 128.46 204.502 128.167 204.255 127.878C204.008 127.59 203.711 127.269 203.434 126.976C204.89 123.872 206.607 120.92 206.748 117.901C206.773 117.518 206.773 117.135 206.748 116.753V116.705C206.562 114.764 205.645 112.798 203.51 110.734C200.392 107.706 195.955 106.17 191.518 105.433C187.081 104.696 182.559 104.677 178.097 104.181C170.699 103.35 163.492 101.21 156.093 100.553C146.981 99.7614 137.806 101.228 129.487 104.805C123.982 107.167 118.407 111.296 118.075 116.961C117.803 121.642 121.278 126.13 120.401 130.756C119.53 135.3 114.595 138.877 115.028 143.473C115.194 145.269 116.176 146.875 117.405 148.306C117.828 148.779 118.276 149.251 118.74 149.724C120.532 151.505 122.507 153.215 123.509 155.459C123.549 155.554 123.589 155.648 123.625 155.743C124.476 157.958 124.093 160.76 121.988 162.031C122 162.039 122.008 162.051 122.013 162.064C122.043 162.101 122.074 162.13 122.099 162.168C122.102 162.16 122.102 162.152 122.099 162.144C122.845 162.974 123.851 163.563 124.974 163.826L125.402 163.949C125.055 164.303 124.728 164.671 124.395 165.059L124.179 165.328C123.624 166.028 123.119 166.762 122.668 167.525C122.411 167.95 122.164 168.375 121.958 168.801C121.267 170.097 120.768 171.474 120.472 172.897C119.933 176.024 120.694 179.284 119.878 182.345C118.87 186.125 115.683 189.025 113.885 192.536C110.48 199.15 112.409 206.912 113.094 214.215C114.026 224.137 112.515 234.1 111.009 243.955C110.21 249.196 109.411 254.441 108.612 259.692C106.597 272.869 104.583 286.047 102.568 299.225C101.833 304.053 100.962 309.146 97.5319 312.873H97.5671C97.5671 312.873 97.5671 312.902 97.5319 312.911C98.5614 313.333 99.6564 313.598 100.775 313.695C105.252 314.116 109.997 312.084 114.026 309.864C117.216 308.134 120.238 306.144 123.056 303.916C122.643 305.333 122.199 306.878 121.726 308.541C121.728 308.557 121.728 308.573 121.726 308.588C116.04 328.903 106.894 366.145 106.894 366.145C106.894 366.145 106.063 367.765 104.986 370.179H247.008C245.346 368.29 243.8 366.48 242.591 365.02L242.103 364.364ZM136.946 176.525C136.981 176.468 137.006 176.416 137.041 176.364C137.041 176.515 137.041 176.662 137.041 176.804C137.041 176.945 137.041 177.073 137.041 177.205C137.041 177.337 137.041 177.323 137.041 177.389C137.041 177.456 137.041 177.389 137.041 177.389C137.041 177.583 136.996 177.777 136.961 177.97C136.961 177.97 136.961 177.994 136.961 178.013L137.464 178.188L138.049 178.415C141.5 179.693 144.995 180.851 148.534 181.887C148.897 181.996 149.264 182.1 149.632 182.199L149.707 182.785C149.798 183.385 149.884 183.994 149.964 184.603C149.964 184.603 149.964 184.632 149.964 184.651C150.191 186.337 150.413 188.019 150.609 189.663C150.609 189.663 141.362 186.356 141.478 191.378C141.473 191.468 141.473 191.558 141.478 191.647C141.468 191.767 141.468 191.887 141.478 192.006C141.564 195.918 142.868 198.238 143.13 199.428C143.114 199.478 143.087 199.523 143.05 199.561C142.826 200.017 142.749 200.524 142.828 201.02C142.819 201.866 142.89 202.71 143.039 203.543C142.767 203.699 142.501 203.855 142.234 204.016C142.032 204.134 141.841 204.266 141.644 204.398C140.409 200.378 138.793 196.47 136.815 192.72C135.43 190.046 133.873 187.258 133.889 184.325C133.889 184.136 133.889 183.942 133.914 183.748C133.97 182.898 134.143 182.058 134.427 181.249C134.543 180.942 134.669 180.64 134.81 180.342C135.139 179.635 135.507 178.944 135.913 178.273C136.175 177.829 136.452 177.389 136.719 176.945C136.805 176.813 136.885 176.676 136.966 176.544L136.946 176.525ZM363.073 73.2181C363.003 73.1047 362.953 72.9914 362.897 72.8874C362.897 72.8402 362.847 72.8024 362.827 72.7551C362.717 72.8037 362.604 72.8463 362.489 72.8827C362.268 72.963 362.041 73.0386 361.809 73.1C361.578 73.1614 361.482 73.1945 361.306 73.2323L360.857 73.341L360.898 73.426C361.084 73.3882 361.265 73.3551 361.452 73.3079L361.502 73.8937C361.714 73.8937 361.91 73.8654 362.101 73.8654H362.373C362.766 73.8654 363.109 73.8654 363.381 73.8654C363.275 73.6528 363.164 73.4307 363.073 73.2181Z" fill="url(#paint1_linear_4_6)"/>
<path d="M253.031 142.609L250.01 143.861C250.01 143.861 230.313 215.642 230.313 221.444C230.313 227.245 272.078 259.526 272.078 259.526L278.595 218.264C278.595 218.264 269.238 123.641 253.031 142.609Z" fill="#E8F5FF"/>
<path d="M344.646 119.776L327.195 111.235C326.218 107.326 324.483 103.619 322.078 100.298C319.525 96.8397 316.13 93.4429 311.9 91.6713C301.208 87.1737 357.126 63.5663 357.126 63.5663C358.006 66.4022 359.043 69.1933 360.233 71.9284C363.114 78.5991 367.893 87.2257 374.052 89.6823C384.523 93.8634 344.646 119.776 344.646 119.776Z" fill="#FFB0B1"/>
<path opacity="0.1" d="M360.233 71.9284C357.844 79.8108 352.875 86.7901 346.029 91.8806C339.183 96.971 330.805 99.9154 322.078 100.298C319.525 96.8397 316.13 93.4429 311.9 91.6713C301.208 87.1737 357.125 63.5663 357.125 63.5663C358.006 66.4022 359.043 69.1933 360.233 71.9284Z" fill="black"/>
<path d="M361.804 60.0089C361.806 67.7397 359.364 75.2973 354.787 81.7261C350.21 88.1548 343.703 93.1658 336.09 96.1253C328.476 99.0848 320.098 99.8599 312.015 98.3525C303.932 96.8451 296.507 93.123 290.68 87.6568C284.852 82.1907 280.883 75.2261 279.275 67.6439C277.667 60.0617 278.492 52.2026 281.646 45.0604C284.8 37.9182 290.141 31.8138 296.994 27.5193C303.847 23.2248 311.903 20.9331 320.144 20.9341C325.622 20.9103 331.05 21.9047 336.116 23.86C341.181 25.8152 345.784 28.6924 349.657 32.3256C353.531 35.9587 356.598 40.2757 358.683 45.0272C360.768 49.7787 361.829 54.8707 361.804 60.0089Z" fill="#FFB0B1"/>
<path d="M367.818 114.759L356.456 139.628L346.434 156.135H314.353L304.995 133.567L308.788 110.162H333.289L349.108 109.326L354.451 107.654L357.896 109.487L367.818 114.759Z" fill="#575A89"/>
<path opacity="0.1" d="M363.904 81.6085C363.904 81.6085 370.99 83.0258 364.645 87.906C358.299 92.7862 336.406 108.306 336.406 108.306C336.406 108.306 344.097 114.731 342.505 122.257L367.984 108.934L372.516 87.6178C372.516 87.6178 373.025 81.2117 363.904 81.6085Z" fill="black"/>
<path opacity="0.1" d="M341.417 108.306L325.211 110.814C325.211 110.814 328.555 122.413 326.883 125.705C326.832 125.808 326.79 125.914 326.757 126.022L320.144 142.789L325.1 155.955L342.253 134.011L336.406 125.705C336.406 125.705 342.586 118.024 346.262 115.359C349.939 112.695 341.417 108.306 341.417 108.306Z" fill="black"/>
<path d="M341.417 107.658L325.211 110.162C325.211 110.162 328.555 121.761 326.883 125.053C326.832 125.156 326.79 125.262 326.757 125.37L320.144 142.136L325.1 155.303L342.253 133.345L336.406 125.039C336.406 125.039 342.586 117.357 346.262 114.693C349.939 112.028 341.417 107.658 341.417 107.658Z" fill="#DCE6F2"/>
<path d="M364.584 80.3566C364.584 80.3566 371.67 81.7739 365.32 86.6541C358.969 91.5343 336.406 108.306 336.406 108.306C336.406 108.306 344.762 113.479 343.175 121L368.654 107.682L373.186 86.3659C373.186 86.3659 373.69 79.9597 364.584 80.3566Z" fill="#575A89"/>
<path opacity="0.1" d="M323.191 101.777C323.191 101.777 324.738 104.488 331.562 109.378C331.562 109.378 320.2 115.047 324.546 123.017L307.166 118.765L304.492 110.928L323.191 101.777Z" fill="black"/>
<path d="M322.521 101.153C322.521 101.153 324.067 103.865 330.892 108.754C330.892 108.754 319.53 114.395 323.876 122.389L306.501 118.137L303.827 110.304L322.521 101.153Z" fill="#575A89"/>
<path opacity="0.1" d="M367.818 114.759L356.456 139.628L346.454 156.135H314.353L304.995 133.567L308.783 110.162H315.597C315.486 115.624 317.611 122.039 317.475 124.425C317.243 128.346 323.71 149.502 323.71 149.502C323.71 149.502 337.242 128.97 342.586 127.142C345.945 125.994 353.061 116.441 357.891 109.487L367.818 114.759Z" fill="black"/>
<path d="M412.575 245.628L411.421 246.988C411.421 246.988 419.777 286.328 417.465 295.261C417.072 296.871 416.848 298.514 416.795 300.165V300.236C416.387 309.326 419.313 321.122 419.313 321.122C419.313 321.122 421.65 355.893 420.321 370.194H263.884C262.968 349.048 261.981 321.651 262.877 318.614C264.388 313.601 267.41 295.417 267.41 295.417L267.742 286.8C267.742 286.8 267.742 278.471 268.014 269.192C268.13 265.021 268.301 260.641 268.548 256.758C268.865 251.873 269.308 247.758 269.918 245.736C270.293 244.204 270.509 242.64 270.562 241.069C270.562 240.922 270.562 240.771 270.593 240.62C270.593 240.147 270.643 239.637 270.663 239.113C270.663 238.966 270.663 238.82 270.663 238.64C270.759 235.598 270.724 231.988 270.618 228.247C270.618 228.044 270.618 227.836 270.618 227.628C270.532 224.822 270.406 221.959 270.265 219.237C269.827 210.734 269.258 203.543 269.258 203.543L250.045 143.828L255.222 131.866L269.59 123.608L296.157 108.561C309.115 98.5689 317.646 99.7689 320.9 100.865C321.216 100.966 321.525 101.084 321.826 101.219C321.927 101.266 322.008 101.304 322.083 101.347C322.187 101.393 322.286 101.446 322.38 101.507C321.49 101.909 320.716 102.508 320.124 103.251C319.458 104.096 318.983 105.061 318.729 106.085C318.559 106.72 318.44 107.366 318.372 108.018C318.306 108.703 318.281 109.411 318.281 110.125C318.317 111.689 318.46 113.25 318.709 114.797C318.709 114.825 318.709 114.863 318.709 114.901C318.875 116.006 319.082 117.088 319.283 118.104C319.281 118.121 319.281 118.139 319.283 118.156C319.515 119.342 319.747 120.438 319.903 121.383C319.933 121.553 319.958 121.709 319.983 121.855C320.094 122.479 320.146 123.112 320.139 123.745C320.196 125.273 320.415 126.793 320.794 128.28C320.925 128.904 321.076 129.57 321.242 130.264C321.469 131.209 321.716 132.239 321.983 133.288C322.129 133.864 322.285 134.46 322.446 135.05C322.506 135.286 322.572 135.523 322.632 135.763L322.733 136.137C323.806 140.138 324.969 144.121 325.684 146.53C326.107 147.947 326.374 148.821 326.374 148.821C326.374 148.821 333.959 137.318 340.012 130.77C340.103 130.675 340.184 130.586 340.269 130.501C340.869 129.853 341.458 129.263 342.022 128.743C343.256 127.59 344.364 126.768 345.255 126.466C345.445 126.401 345.629 126.32 345.804 126.225C348.282 124.907 352.281 120.121 356.023 115.109C356.39 114.636 356.748 114.121 357.11 113.635C357.941 112.51 358.747 111.381 359.508 110.299C360.092 109.473 360.651 108.669 361.18 107.904C363.698 104.229 365.471 101.489 365.471 101.489L368.966 101.342L369.575 101.314H369.983L385.852 100.624C385.852 100.624 386.537 100.733 387.665 100.945C387.726 100.945 387.786 100.945 387.852 100.983C393.482 102.032 409.125 105.353 410.082 109.959C411.25 115.6 436.482 123.126 436.482 123.126C436.814 126.905 442.994 129.395 442.994 129.395C442.994 129.395 452.351 152.591 449.848 161.681C447.375 170.657 456.284 192.862 456.521 193.485L454.814 195.507L412.575 245.628Z" fill="#E8F5FF"/>
<path opacity="0.1" d="M363.899 79.9598C363.899 79.9598 379.345 75.8496 382.856 84.3109C386.366 92.7722 394.218 126.943 394.218 126.943C394.218 126.943 373.831 130.548 368.487 126.943C365.353 124.804 361.474 123.852 357.624 124.279L346.096 131.644L342.692 130.699C342.692 130.699 361.134 104.98 365.143 96.2398C369.152 87.4998 370.507 83.5928 363.899 79.9598Z" fill="black"/>
<path d="M363.23 78.07C363.23 78.07 378.686 73.9599 382.211 82.4211C385.737 90.8824 393.573 125.053 393.573 125.053C393.573 125.053 373.191 128.658 367.843 125.053C364.71 122.914 360.833 121.962 356.985 122.389L345.447 129.754L342.042 128.809C342.042 128.809 360.485 103.09 364.494 94.35C368.503 85.61 369.837 81.7125 363.23 78.07Z" fill="#E8F5FF"/>
<path opacity="0.1" d="M259.548 214.39C259.548 214.39 271.076 217.055 273.252 223.168C275.428 229.281 264.731 229.437 264.731 229.437C264.731 229.437 258.214 218.623 259.548 214.39Z" fill="black"/>
<path opacity="0.1" d="M302.487 259.526C302.487 259.526 274.254 313.757 280.771 318.93C287.288 324.103 302.487 259.526 302.487 259.526Z" fill="black"/>
<path opacity="0.1" d="M341.417 219.563C341.417 219.563 363.975 272.24 359.462 280.375C354.95 288.51 369.152 280.375 369.152 280.375L341.417 219.563Z" fill="black"/>
<path d="M372.829 271.597C372.829 271.597 296.64 275.046 318.865 297.302C341.09 319.558 386.699 298.247 386.699 298.247L372.829 271.597Z" fill="#FFB0B1"/>
<path opacity="0.1" d="M361.804 60.0088C361.811 65.1348 360.738 70.2115 358.647 74.9471C357.947 75.0227 357.247 75.07 356.572 75.0983C355.564 73.0243 356.103 70.6291 356.123 68.3473C356.144 66.0654 355.247 63.382 352.905 62.7678C348.237 61.5348 345.013 69.722 340.41 68.2433C336.885 67.1189 337.807 62.1017 335.777 59.2057C334.17 56.9144 330.952 56.2672 328.449 54.831C323.126 51.7649 323.287 46.8611 320.814 42.2218C318.226 37.3605 312.756 38.7966 308.007 41.6643C304.401 43.8469 301.289 46.7713 297.431 48.5098C294.092 50.0216 290.34 50.5697 286.638 50.65C284.359 50.7328 282.08 50.5069 279.87 49.9791C282.469 40.8111 288.535 32.8429 296.935 27.5607C305.336 22.2784 315.498 20.0426 325.526 21.2702C335.554 22.4979 344.764 27.1051 351.438 34.2328C358.112 41.3605 361.795 50.522 361.799 60.0088H361.804Z" fill="black"/>
<path d="M308.022 40.4125C304.411 42.5951 301.304 45.5147 297.446 47.2627C294.107 48.7698 290.355 49.3178 286.653 49.3981C282.121 49.4926 277.241 48.7462 274.143 45.6754C271.298 42.8408 270.618 38.4802 271.822 34.7622C273.025 31.0442 275.911 27.9592 279.3 25.7246C282.69 23.49 286.623 21.9451 288.869 18.7468C290.058 17.0554 290.632 15.0618 291.619 13.2618C294.777 7.50287 301.878 4.38482 308.742 3.99742C315.607 3.61003 322.411 5.5281 328.948 7.6068C335.485 9.68551 342.072 11.9721 348.972 12.402C352.044 12.5815 355.237 12.402 358.088 13.4933C361.92 14.9531 364.433 18.4444 366.146 21.9971C368.064 26.0033 369.258 30.378 369.057 34.7527C368.634 44.0927 362.056 53.2579 364.947 62.2058C365.713 64.5916 367.148 67.0388 366.382 69.4245C365.264 72.9064 360.475 73.7001 356.602 73.8654C355.595 71.7914 356.134 69.3915 356.154 67.1143C356.174 64.8372 355.277 62.1491 352.941 61.5349C348.267 60.3113 345.044 68.4844 340.451 67.0104C336.951 65.8813 337.857 60.8688 335.822 57.9728C334.216 55.6768 330.993 55.0343 328.495 53.5981C323.171 50.532 323.332 45.6281 320.86 40.9888C318.251 36.1039 312.777 37.5401 308.022 40.4125Z" fill="#575A89"/>
<path d="M234.145 220.187L230.303 221.444C230.303 221.444 231.813 242.76 226.777 248.873C221.741 254.986 243.316 270.185 243.316 270.185C243.316 270.185 272.889 270.029 273.725 267.822C274.561 265.616 272.214 228.327 272.214 228.327C272.214 228.327 256.34 222.526 257.675 213.28C257.675 213.28 252.83 235.064 245.648 234.124C238.466 233.184 230.313 227.557 234.145 220.187Z" fill="#E8F5FF"/>
<path opacity="0.1" d="M246.963 240.719C252.562 240.719 257.101 236.825 257.101 232.021C257.101 227.218 252.562 223.324 246.963 223.324C241.364 223.324 236.825 227.218 236.825 232.021C236.825 236.825 241.364 240.719 246.963 240.719Z" fill="black"/>
<path d="M258.047 220.815C258.047 220.815 256.033 163.141 238.497 175.991C220.961 188.841 220.789 204.209 224.128 208.749C227.467 213.289 238.174 236.018 238.174 236.018C239.849 236.929 241.73 237.454 243.663 237.551C245.596 237.648 247.526 237.315 249.295 236.577C251.064 235.84 252.622 234.719 253.84 233.308C255.058 231.897 255.903 230.236 256.305 228.459L258.047 220.815Z" fill="#FFB0B1"/>
<path opacity="0.1" d="M367.44 74.7252C367.358 74.4718 367.201 74.2456 366.986 74.0732C366.12 73.3315 364.257 73.0717 361.447 73.2984L361.562 74.5456C365.309 74.2433 366.05 74.9425 366.145 75.0606V75.1787L366.261 75.3346C366.728 75.9236 367.059 76.5976 367.233 77.3135C367.406 78.0294 367.418 78.7714 367.269 79.492C366.448 83.3423 361.406 86.4084 361.356 86.4415L361.235 86.5076L361.16 86.6163C358.984 89.6446 346.68 98.1909 343.462 100.402L343.18 100.099C341.74 101.271 329.079 111.669 328.394 115.652C327.951 118.151 324.949 119.12 323.861 119.389C322.713 118.572 318.986 115.789 317.047 112.671C315.229 109.737 322.547 104.011 323.191 101.777L322.184 100.808C322.078 101.167 312.681 109.406 315.294 113.616C317.389 116.994 321.217 119.885 322.557 120.839C322.129 124.486 319.464 145.902 315.37 150.976C310.283 157.283 306.008 189.068 306.481 200.165C306.899 210.025 304.154 228.648 294.988 236.647C293.401 238.092 291.487 239.183 289.388 239.837C287.289 240.491 285.06 240.693 282.866 240.426H282.755H282.644C282.513 240.426 269.218 241.702 258.047 232.867C248.907 225.653 243.729 213.88 242.652 197.865H242.43L242.339 193.202C244.818 192.839 247.05 191.589 248.566 189.715C250.083 187.84 250.766 185.488 250.472 183.151C250.179 180.814 248.931 178.675 246.991 177.183C245.051 175.691 242.57 174.963 240.07 175.151C237.569 175.339 235.244 176.429 233.582 178.191C231.92 179.954 231.052 182.252 231.158 184.603C231.265 186.954 232.339 189.174 234.154 190.798C235.97 192.422 238.385 193.322 240.894 193.31H241.005L241.095 197.945L240.652 197.973C241.76 214.508 247.199 226.74 256.768 234.294C264.041 239.947 273.331 242.799 282.76 242.273C283.429 242.342 284.102 242.376 284.775 242.377C289.097 242.398 293.255 240.829 296.358 238.007C306.013 229.574 308.949 210.266 308.49 200.071C307.987 188.312 312.474 157.67 316.976 152.091C321.388 146.615 324.062 125.28 324.531 121.146C326.127 120.726 329.738 119.398 330.353 115.95C330.796 113.455 339.252 105.769 344.454 101.512L344.298 101.342C347.098 99.4239 355.806 93.3768 360.122 89.4934C361.462 88.2887 362.791 87.084 364.181 85.936C365.853 84.547 367.979 82.3408 368.538 79.7329C368.728 78.8721 368.729 77.9838 368.54 77.1226C368.352 76.2615 367.977 75.4456 367.44 74.7252Z" fill="black"/>
<path d="M322.386 120.542C322.174 120.405 317.158 117.036 314.645 112.983C312.036 108.773 321.434 100.539 321.535 100.18L322.542 101.148C321.902 103.378 314.584 109.109 316.403 112.038C318.694 115.737 323.519 118.973 323.569 119.006L322.386 120.542Z" fill="#353146"/>
<path d="M342.808 101.318L342.022 100.303C342.183 100.194 358.002 89.4604 360.495 85.988L360.575 85.8841L360.691 85.8132C360.742 85.7802 365.783 82.7188 366.604 78.8638C366.755 78.144 366.744 77.4025 366.57 76.6871C366.397 75.9717 366.065 75.2986 365.597 74.7111L365.481 74.5505V74.4371C365.38 74.3143 364.64 73.6198 360.893 73.9221L360.777 72.6702C363.592 72.4434 365.451 72.7033 366.317 73.445C366.532 73.619 366.691 73.8467 366.775 74.1017C367.32 74.82 367.702 75.6353 367.897 76.4974C368.093 77.3595 368.099 78.25 367.913 79.1142C367.354 81.7267 365.234 83.933 363.557 85.3172C362.172 86.4652 360.837 87.6793 359.503 88.8746C354.441 93.4241 343.362 100.945 342.808 101.318Z" fill="#E8F5FF"/>
<path d="M241.689 191.557L240.355 191.58L240.504 199.189L241.838 199.167L241.689 191.557Z" fill="#E8F5FF"/>
<path d="M240.244 192.71C245.626 192.71 249.989 188.618 249.989 183.569C249.989 178.52 245.626 174.427 240.244 174.427C234.862 174.427 230.499 178.52 230.499 183.569C230.499 188.618 234.862 192.71 240.244 192.71Z" fill="#587EEC"/>
<path d="M240.244 191.161C244.714 191.161 248.337 187.762 248.337 183.569C248.337 179.376 244.714 175.977 240.244 175.977C235.774 175.977 232.151 179.376 232.151 183.569C232.151 187.762 235.774 191.161 240.244 191.161Z" fill="#E8F5FF"/>
<path d="M284.14 241.768C283.467 241.769 282.795 241.735 282.126 241.668C272.697 242.189 263.409 239.338 256.134 233.689C246.565 226.13 241.136 213.913 240.018 197.364L242.032 197.246C243.11 213.261 248.287 225.039 257.433 232.248C268.603 241.059 281.894 239.807 282.025 239.807H282.136H282.247C284.441 240.072 286.671 239.87 288.77 239.216C290.87 238.562 292.785 237.472 294.374 236.028C303.535 228.029 306.28 209.406 305.862 199.546C305.358 188.44 309.634 156.654 314.725 150.352C319.182 144.829 321.947 119.937 321.978 119.687L322.053 118.978L322.798 118.855C322.844 118.855 327.195 118.08 327.739 115.028C328.444 111.05 341.085 100.652 342.52 99.4759L343.835 100.893C338.612 105.145 330.156 112.836 329.733 115.335C329.119 118.794 325.508 120.116 323.916 120.532C323.413 124.671 320.759 146.001 316.362 151.476C311.86 157.056 307.372 187.698 307.876 199.457C308.309 209.652 305.403 228.965 295.749 237.393C292.64 240.222 288.471 241.793 284.14 241.768Z" fill="#353146"/>
<g opacity="0.1">
<path opacity="0.1" d="M366.095 48.8406C366.921 45.9777 367.918 43.0958 368.613 40.1951C367.782 43.11 366.78 45.9777 366.095 48.8406Z" fill="black"/>
<path opacity="0.1" d="M357.67 71.3379C356.662 69.2639 357.201 66.8639 357.221 64.5868C357.241 62.3097 356.345 59.6452 354.008 59.0074C349.335 57.7838 346.111 65.9616 341.518 64.4829C337.993 63.3538 338.925 58.3412 336.89 55.4452C335.283 53.1492 332.065 52.5067 329.567 51.0705C324.239 48.0044 324.4 43.1006 321.932 38.4613C319.339 33.5953 313.874 35.0315 309.12 37.9038C305.509 40.0865 302.402 43.0108 298.544 44.7541C295.205 46.2612 291.453 46.8092 287.751 46.8895C283.244 46.9887 278.338 46.2375 275.241 43.1667C272.854 40.8046 271.993 37.3416 272.486 34.096C272.401 34.3181 272.325 34.5401 272.25 34.7622C271.041 38.4802 271.746 42.8502 274.571 45.6753C277.669 48.7462 282.574 49.4926 287.081 49.3981C290.788 49.3178 294.535 48.7698 297.879 47.2627C301.747 45.5147 304.854 42.5951 308.455 40.4125C313.209 37.5401 318.679 36.1039 321.267 40.9699C323.735 45.6092 323.579 50.5131 328.902 53.5791C331.421 54.9964 334.619 55.6578 336.23 57.9539C338.245 60.8593 337.353 65.8624 340.859 66.9915C345.447 68.4655 348.67 60.2924 353.343 61.516C355.68 62.1302 356.582 64.823 356.557 67.0954C356.531 69.3678 356.008 71.7725 357.005 73.8465C360.878 73.6811 365.667 72.9016 366.79 69.4056C366.945 68.9039 367.016 68.3828 367.002 67.8608C365.365 70.5111 361.155 71.1914 357.67 71.3379Z" fill="black"/>
</g>
<path opacity="0.1" d="M448.69 187.745L454.537 193.547C454.537 193.547 459.216 225.516 461.552 228.507C463.889 231.497 469.409 243.393 464.227 252.327C464.227 252.327 462.555 257.188 463.557 259.224C464.559 261.26 456.043 271.451 456.043 271.451C456.043 271.451 444.847 280.852 442.505 282.265C440.163 283.677 427.804 294.959 423.629 295.115C419.454 295.271 418.09 300.132 418.09 300.132L394.53 300.916C394.53 300.916 381.516 300.278 378.686 302.003C378.686 302.003 380.197 283.351 365.657 271.125L384.201 264.855C384.201 264.855 391.221 262.021 393.392 259.059C394.757 257.243 396.694 255.873 398.932 255.142C398.932 255.142 404.109 251.694 404.275 249.813C404.441 247.933 410.606 245.628 410.606 245.628L407.116 217.683L408.954 171.29C408.954 171.29 414.801 132.419 427.165 134.615C439.529 136.812 448.69 187.745 448.69 187.745Z" fill="black"/>
<path d="M450.704 187.745L456.551 193.547C456.551 193.547 461.23 225.516 463.567 228.507C465.904 231.497 471.423 243.393 466.241 252.327C466.241 252.327 464.574 257.188 465.576 259.224C466.578 261.26 458.057 271.451 458.057 271.451C458.057 271.451 446.862 280.852 444.52 282.265C442.178 283.677 429.819 294.959 425.644 295.115C421.469 295.271 420.104 300.132 420.104 300.132L396.544 300.916C396.544 300.916 383.521 300.278 380.7 302.003C380.7 302.003 382.211 283.351 367.672 271.125L386.215 264.855C386.215 264.855 393.236 262.021 395.406 259.059C396.772 257.243 398.709 255.873 400.946 255.142C400.946 255.142 406.123 251.694 406.289 249.813C406.456 247.933 412.62 245.628 412.62 245.628L409.13 217.683L410.968 171.29C410.968 171.29 416.815 132.419 429.179 134.615C441.543 136.812 450.704 187.745 450.704 187.745Z" fill="#E8F5FF"/>
<path opacity="0.1" d="M428.968 234.61C428.968 234.61 446.177 230.359 450.689 235.555C455.202 240.752 428.968 234.61 428.968 234.61Z" fill="black"/>
<path opacity="0.1" d="M424.959 241.739C430.806 245.58 448.851 245.736 448.851 245.736L424.959 241.739Z" fill="black"/>
<path opacity="0.1" d="M433.813 260.939C434.316 261.095 446.217 273.01 451.213 269.405C456.209 265.8 433.813 260.939 433.813 260.939Z" fill="black"/>
<path opacity="0.1" d="M273.539 160.944C273.539 160.944 277.034 183.517 275.312 192.71C273.589 201.904 279.875 213.294 279.875 213.294L273.539 160.944Z" fill="black"/>
<path d="M196.162 170.123C192.133 173.086 189.192 180.096 187.061 187.802C183.345 201.243 182.131 216.828 182.131 216.828C182.131 216.828 150.05 209.931 152.387 206.798C153.857 204.828 151.883 189.984 150.236 179.222C149.254 172.864 148.378 167.927 148.378 167.927C148.378 167.927 207.191 161.969 196.162 170.123Z" fill="#FFB0B1"/>
<path opacity="0.1" d="M196.162 169.495C192.133 172.462 189.192 179.468 187.061 187.173C180.67 188.994 173.872 189.158 167.389 187.649C160.905 186.139 154.979 183.012 150.236 178.599C149.254 172.235 148.378 167.298 148.378 167.298C148.378 167.298 207.191 161.346 196.162 169.495Z" fill="black"/>
<path d="M213.406 152.61C213.409 160.827 210.314 168.781 204.667 175.063C199.02 181.344 191.186 185.55 182.552 186.935C173.917 188.319 165.039 186.794 157.488 182.628C149.938 178.463 144.201 171.926 141.294 164.175C138.388 156.423 138.498 147.957 141.605 140.274C144.713 132.592 150.618 126.188 158.275 122.197C165.932 118.206 174.847 116.884 183.443 118.466C192.038 120.048 199.76 124.431 205.242 130.841C210.525 137.015 213.404 144.694 213.406 152.61Z" fill="#FFB0B1"/>
<path opacity="0.1" d="M242.656 370.194H232.08L231.189 352.671L230.257 334.534C230.257 334.534 232.659 334.199 236.487 333.698L238.033 333.505H238.159C238.995 337.185 239.821 340.964 240.617 344.739C241.941 351.44 242.631 358.238 242.677 365.054C242.677 365.526 242.677 365.998 242.677 366.442C242.707 367.704 242.677 368.965 242.656 370.194Z" fill="black"/>
<path d="M240.627 370.194H107.992C108.566 368.97 108.949 368.228 108.949 368.228C108.949 368.228 119.56 324.68 124.954 306.255C124.956 306.239 124.956 306.223 124.954 306.207C125.628 303.705 126.442 301.237 127.392 298.814C127.453 298.649 127.533 298.491 127.629 298.341C130.298 294.269 133.642 289.88 128.963 283.611C124.284 277.342 125.941 249.757 125.941 249.757C125.941 249.757 131.622 226.244 137.636 213.705C138.548 211.763 139.843 210 141.453 208.509C141.976 208.028 142.535 207.583 143.125 207.176C143.574 206.86 144.041 206.568 144.525 206.302L144.621 206.246C147.147 204.902 149.952 204.085 152.845 203.85C154.9 203.649 156.975 203.703 159.014 204.011C168.765 205.353 176.571 207.597 182.776 210.153C199.592 217.083 204.683 226.371 204.784 226.565L204.824 226.645C205.499 228.124 215.37 249.742 218.926 259.829C219.847 262.456 220.351 264.303 220.15 264.808C219.142 267.312 227.835 298.658 227.835 298.658C227.835 298.658 231.864 313.776 235.893 331.497C236.069 332.234 236.235 332.971 236.397 333.717C237.117 336.934 237.832 340.213 238.522 343.487C239.859 350.234 240.548 357.081 240.582 363.943C240.656 366.082 240.671 368.165 240.627 370.194Z" fill="#EB5569"/>
<path opacity="0.1" d="M152.054 193.069C152.054 193.069 142.904 189.762 143.014 194.78C143.125 199.797 145.245 202.197 144.576 202.929C143.906 203.661 144.908 208.05 144.908 208.05C144.908 208.05 157.272 208.05 162.953 210.45C168.634 212.85 189.574 217.66 192.249 219.124C194.923 220.589 204.839 227.155 204.839 227.155L205.731 214.721C205.731 214.721 195.482 206.779 178.666 202.707C161.85 198.635 152.054 193.069 152.054 193.069Z" fill="black"/>
<path d="M152.054 192.441C152.054 192.441 142.904 189.134 143.014 194.151C143.125 199.169 145.245 201.568 144.576 202.301C143.906 203.033 144.908 207.422 144.908 207.422C144.908 207.422 157.272 207.422 162.953 209.827C168.634 212.231 189.574 217.036 192.249 218.496C194.923 219.956 204.839 226.527 204.839 226.527L205.741 214.13C205.741 214.13 195.492 206.189 178.676 202.117C161.86 198.044 152.054 192.441 152.054 192.441Z" fill="#EB5569"/>
<path opacity="0.1" d="M179.678 222.365C179.678 222.365 197.164 240.124 196.273 245.042C195.381 249.96 179.678 222.365 179.678 222.365Z" fill="black"/>
<path opacity="0.1" d="M151.274 286.517C151.274 286.517 138.457 297.595 134.679 298.223C130.902 298.852 137.575 300.94 141.916 299.272C146.258 297.605 155.514 293.216 155.514 293.216L151.274 286.517Z" fill="black"/>
<path d="M245.834 370.194H215.944C211.764 366.792 207.811 363.641 205.292 361.747C201.263 358.714 198.358 354.249 196.504 350.659C196.086 349.841 195.724 349.076 195.416 348.382C194.866 347.185 194.382 345.963 193.966 344.72L216.1 332.39C217.324 333.365 218.473 334.42 219.54 335.546L219.807 335.834C221.036 337.194 222.119 338.739 222.214 340.005C222.325 341.479 226.697 347.182 231.164 352.657C235.696 358.227 240.34 363.551 240.647 363.91C240.647 363.91 241.412 364.888 242.661 366.391C243.543 367.477 244.631 368.781 245.834 370.194Z" fill="#FFB0B1"/>
<path opacity="0.1" d="M205.242 130.841C204.18 133.089 203.228 135.423 203.087 137.927C202.689 145.155 203.334 161.317 194.802 164.946C190.577 166.731 186.054 162.81 181.421 162.716C178.087 162.65 175.03 164.634 172.995 167.114C170.961 169.594 169.696 172.538 168.221 175.344C166.878 177.891 165.33 180.339 163.593 182.666C163.073 183.379 162.501 184.056 161.88 184.693C156.678 182.634 152.046 179.488 148.336 175.495C144.626 171.502 141.937 166.768 140.473 161.652C139.01 156.537 138.81 151.175 139.89 145.976C140.97 140.777 143.301 135.878 146.704 131.652C150.108 127.427 154.496 123.985 159.532 121.591C164.568 119.196 170.121 117.912 175.767 117.836C181.413 117.759 187.002 118.893 192.11 121.15C197.218 123.407 201.71 126.728 205.242 130.86V130.841Z" fill="black"/>
<path d="M202.417 136.652C202.014 143.88 202.664 160.042 194.127 163.665C189.902 165.451 185.379 161.535 180.746 161.44C177.412 161.369 174.36 163.358 172.32 165.834C170.281 168.309 169.027 171.257 167.546 174.068C166.202 176.615 164.655 179.063 162.918 181.391C161.88 182.77 160.732 184.155 159.135 184.929C156.355 186.29 152.986 185.525 150.005 184.651C146.137 183.507 142.326 182.219 138.572 180.786C138.658 180.255 138.702 179.718 138.703 179.18C138.592 179.378 138.472 179.563 138.351 179.761L138.114 180.148C137.686 180.857 137.268 181.566 136.885 182.293C136.739 182.572 136.598 182.86 136.472 183.148C135.966 184.221 135.648 185.363 135.53 186.531C135.274 189.682 136.931 192.673 138.401 195.507C144.057 206.472 147.552 219.294 143.296 230.798C141.453 235.801 138.26 240.246 135.928 245.079C131.852 253.639 130.652 263.161 132.489 272.377C133.652 278.102 135.984 283.772 135.41 289.578C134.402 299.57 125.216 307.006 116.015 312.118C111.044 314.867 104.96 317.314 99.6824 315.141C103.047 311.456 103.913 306.359 104.638 301.549C106.622 288.431 108.612 275.307 110.606 262.177C111.402 256.952 112.196 251.727 112.988 246.501C114.469 236.684 115.97 226.759 115.043 216.88C114.368 209.6 112.464 201.871 115.829 195.28C117.606 191.789 120.774 188.898 121.761 185.137C122.572 182.081 121.817 178.83 122.351 175.717C122.643 174.3 123.137 172.927 123.821 171.635C124.692 169.881 125.828 168.255 127.195 166.807C125.846 166.438 124.587 165.933 123.821 164.875C125.987 163.552 126.314 160.571 125.332 158.331C124.35 156.092 122.386 154.387 120.618 152.62C118.85 150.853 117.148 148.793 116.927 146.384C116.498 141.796 121.384 138.244 122.245 133.718C123.116 129.112 119.671 124.633 119.948 119.97C120.271 114.334 125.79 110.238 131.24 107.862C139.463 104.291 148.546 102.824 157.569 103.61C164.912 104.262 172.018 106.392 179.341 107.219C183.758 107.691 188.235 107.739 192.621 108.466C197.008 109.194 201.405 110.729 204.492 113.748C212.63 121.708 202.88 128.261 202.417 136.652Z" fill="#575A89"/>
<path opacity="0.1" d="M195.608 350.663C193.039 349.619 188.366 350.243 180.343 347.952C172.32 345.66 170.774 335.305 170.774 335.305V335.271C170.678 335.035 169.933 333.495 164.887 328.1C159.311 322.143 147.26 292.053 147.26 292.053C147.26 292.053 136.573 281.287 136.91 277.318C137.248 273.35 135.012 262.791 135.233 250.98C135.455 239.169 159.291 231.336 159.291 231.336C205.187 223.707 194.379 273.34 193.155 277.101C191.931 280.861 198.282 291.019 198.282 291.019C197.386 295.441 201.958 302.286 201.958 302.286C201.958 302.286 203.066 308.343 203.293 310.644C203.306 310.75 203.331 310.854 203.369 310.955C204.104 313.124 210.097 315.089 212.535 316.284C215.098 317.541 223.342 328.511 223.342 328.511C225.12 336.566 198.166 351.722 195.608 350.663Z" fill="black"/>
<path d="M196.943 348.773C194.379 347.725 189.7 348.353 181.683 346.057C173.665 343.761 172.114 333.415 172.114 333.415V333.382C172.023 333.141 171.273 331.605 166.226 326.21C160.651 320.253 148.6 290.159 148.6 290.159C148.6 290.159 137.913 279.397 138.245 275.428C138.577 271.46 136.351 260.901 136.573 249.1C136.795 237.298 160.616 229.47 160.616 229.47C206.511 221.84 195.704 271.474 194.48 275.235C193.256 278.995 199.607 289.153 199.607 289.153C198.71 293.575 203.283 300.42 203.283 300.42C203.283 300.42 204.391 306.477 204.623 308.777C204.631 308.884 204.655 308.989 204.693 309.089C205.429 311.258 211.422 313.223 213.864 314.418C216.423 315.67 224.672 326.645 224.672 326.645C226.46 334.686 199.506 349.841 196.943 348.773Z" fill="#EB5569"/>
<path opacity="0.1" d="M161.523 255.383C161.523 255.383 181.572 275.225 186.805 275.225C192.037 275.225 161.523 255.383 161.523 255.383Z" fill="black"/>
<path d="M196.942 348.774C194.379 347.725 189.7 348.353 181.683 346.057C173.665 343.761 172.114 333.415 172.114 333.415V333.382C177.427 330.075 190.884 320.735 196.187 317.319C199.919 314.924 202.966 311.404 204.749 309.07C205.484 311.239 211.477 313.204 213.92 314.399C216.478 315.651 224.727 326.626 224.727 326.626C226.46 334.686 199.506 349.841 196.942 348.774Z" fill="#FF748E"/>
<g opacity="0.1">
<path opacity="0.1" d="M123.851 164.927C123.877 164.964 123.912 164.997 123.942 165.035C124.093 164.856 124.249 164.676 124.41 164.506C124.239 164.663 124.052 164.804 123.851 164.927Z" fill="black"/>
<path opacity="0.1" d="M135.535 186.583C135.747 183.961 137.243 181.651 138.643 179.345C137.726 179.015 136.81 178.679 135.903 178.33C135.989 177.8 136.033 177.264 136.034 176.728C134.619 179.09 133.078 181.415 132.861 184.074C132.604 187.23 134.261 190.216 135.732 193.051C141.393 204.011 144.883 216.833 140.627 228.341C138.779 233.34 135.591 237.79 133.259 242.623C129.184 251.182 127.986 260.702 129.824 269.915C130.978 275.646 133.314 281.31 132.74 287.117C131.733 297.109 122.552 304.545 113.346 309.652C109.584 311.74 105.187 313.653 100.982 313.516C100.592 314.104 100.158 314.664 99.6824 315.193C104.965 317.381 111.044 314.919 116.015 312.16C125.226 307.058 134.427 299.641 135.435 289.63C136.009 283.824 133.672 278.159 132.514 272.429C130.675 263.216 131.87 253.697 135.938 245.136C138.255 240.308 141.478 235.853 143.306 230.855C147.562 219.346 144.067 206.524 138.411 195.564C136.946 192.71 135.279 189.739 135.535 186.583Z" fill="black"/>
<path opacity="0.1" d="M204.482 113.805C203.986 113.328 203.454 112.886 202.89 112.482C208.994 119.909 200.181 126.22 199.743 134.214C199.35 141.442 199.994 157.609 191.458 161.227C187.238 163.018 182.71 159.097 178.082 159.002C174.743 158.936 171.691 160.925 169.651 163.401C167.611 165.876 166.357 168.824 164.882 171.63C163.535 174.177 161.987 176.625 160.248 178.953C159.241 180.337 158.063 181.717 156.461 182.496C153.691 183.852 150.322 183.092 147.335 182.213C144.431 181.356 141.554 180.411 138.703 179.378C138.697 179.87 138.654 180.361 138.572 180.848C142.329 182.284 146.142 183.572 150.01 184.712C152.991 185.591 156.36 186.351 159.135 184.995C160.732 184.216 161.89 182.832 162.923 181.448C164.662 179.123 166.209 176.676 167.551 174.13C169.032 171.323 170.281 168.371 172.325 165.895C174.37 163.42 177.417 161.435 180.751 161.501C185.384 161.596 189.912 165.517 194.132 163.727C202.669 160.108 202.019 143.941 202.417 136.713C202.88 128.308 212.63 121.76 204.482 113.805Z" fill="black"/>
</g>
<path opacity="0.1" d="M138.119 180.153C137.691 180.862 137.273 181.57 136.89 182.298C136.744 182.577 136.603 182.865 136.477 183.153C133.838 180.659 127.412 174.73 123.826 172.892C124.698 171.139 125.834 169.513 127.2 168.064C127.2 168.064 135.747 172.301 138.119 180.153Z" fill="black"/>
<path d="M138.356 179.766C136.376 171.361 127.2 166.812 127.2 166.812C125.833 168.26 124.697 169.886 123.826 171.64C127.608 173.582 134.579 180.092 136.89 182.298L138.356 179.766Z" fill="#EB5569"/>
<defs>
<linearGradient id="paint0_linear_4_6" x1="368.094" y1="45.5053" x2="368.094" y2="36.822" gradientUnits="userSpaceOnUse">
<stop stop-color="#808080" stop-opacity="0.25"/>
<stop offset="0.54" stop-color="#808080" stop-opacity="0.12"/>
<stop offset="1" stop-color="#808080" stop-opacity="0.1"/>
</linearGradient>
<linearGradient id="paint1_linear_4_6" x1="231050" y1="311099" x2="231050" y2="21690.9" gradientUnits="userSpaceOnUse">
<stop stop-color="#808080" stop-opacity="0.25"/>
<stop offset="0.54" stop-color="#808080" stop-opacity="0.12"/>
<stop offset="1" stop-color="#808080" stop-opacity="0.1"/>
</linearGradient>
</defs>
</svg>
