<svg width="140" height="43" viewBox="0 0 140 43" fill="none" xmlns="http://www.w3.org/2000/svg">
<path d="M51.462 29.1415C49.734 29.1415 48.384 28.7215 47.412 27.8815C46.44 27.0295 45.924 25.8235 45.864 24.2635C45.852 23.9155 45.846 23.3635 45.846 22.6075C45.846 21.8515 45.852 21.2995 45.864 20.9515C45.924 19.4275 46.446 18.2515 47.43 17.4235C48.426 16.5955 49.77 16.1815 51.462 16.1815C52.602 16.1815 53.592 16.3675 54.432 16.7395C55.284 17.1115 55.932 17.5855 56.376 18.1615C56.832 18.7375 57.072 19.3315 57.096 19.9435C57.096 20.0515 57.054 20.1415 56.97 20.2135C56.898 20.2855 56.808 20.3215 56.7 20.3215H54.072C53.952 20.3215 53.856 20.3035 53.784 20.2675C53.712 20.2315 53.652 20.1655 53.604 20.0695C53.448 19.7215 53.202 19.4215 52.866 19.1695C52.53 18.9055 52.062 18.7735 51.462 18.7735C50.034 18.7735 49.284 19.5295 49.212 21.0415C49.2 21.3775 49.194 21.8995 49.194 22.6075C49.194 23.3035 49.2 23.8255 49.212 24.1735C49.284 25.7575 50.052 26.5495 51.516 26.5495C52.224 26.5495 52.788 26.3695 53.208 26.0095C53.64 25.6375 53.856 25.0735 53.856 24.3175V23.9755H52.164C52.032 23.9755 51.924 23.9335 51.84 23.8495C51.756 23.7535 51.714 23.6395 51.714 23.5075V22.1755C51.714 22.0435 51.756 21.9355 51.84 21.8515C51.924 21.7555 52.032 21.7075 52.164 21.7075H56.7C56.832 21.7075 56.94 21.7555 57.024 21.8515C57.108 21.9355 57.15 22.0435 57.15 22.1755V24.2275C57.15 25.2475 56.916 26.1295 56.448 26.8735C55.98 27.6055 55.314 28.1695 54.45 28.5655C53.598 28.9495 52.602 29.1415 51.462 29.1415ZM63.4451 29.1415C61.9571 29.1415 60.8111 28.7875 60.0071 28.0795C59.2031 27.3715 58.7651 26.3755 58.6931 25.0915C58.6811 24.9355 58.6751 24.6655 58.6751 24.2815C58.6751 23.8975 58.6811 23.6275 58.6931 23.4715C58.7651 22.1995 59.2151 21.2095 60.0431 20.5015C60.8711 19.7815 62.0051 19.4215 63.4451 19.4215C64.8971 19.4215 66.0371 19.7815 66.8651 20.5015C67.6931 21.2095 68.1431 22.1995 68.2151 23.4715C68.2271 23.6275 68.2331 23.8975 68.2331 24.2815C68.2331 24.6655 68.2271 24.9355 68.2151 25.0915C68.1431 26.3755 67.7051 27.3715 66.9011 28.0795C66.0971 28.7875 64.9451 29.1415 63.4451 29.1415ZM63.4451 26.9455C63.9731 26.9455 64.3631 26.7895 64.6151 26.4775C64.8671 26.1535 65.0111 25.6615 65.0471 25.0015C65.0591 24.8815 65.0651 24.6415 65.0651 24.2815C65.0651 23.9215 65.0591 23.6815 65.0471 23.5615C65.0111 22.9135 64.8611 22.4275 64.5971 22.1035C64.3451 21.7795 63.9611 21.6175 63.4451 21.6175C62.4491 21.6175 61.9211 22.2655 61.8611 23.5615L61.8431 24.2815L61.8611 25.0015C61.8851 25.6615 62.0231 26.1535 62.2751 26.4775C62.5391 26.7895 62.9291 26.9455 63.4451 26.9455Z" fill="black"/>
<path d="M75.385 29.1415C73.669 29.1415 72.325 28.7275 71.353 27.8995C70.393 27.0595 69.883 25.8475 69.823 24.2635C69.811 23.9395 69.805 23.4115 69.805 22.6795C69.805 21.9355 69.811 21.3955 69.823 21.0595C69.883 19.4995 70.405 18.2995 71.389 17.4595C72.373 16.6075 73.705 16.1815 75.385 16.1815C76.441 16.1815 77.389 16.3615 78.229 16.7215C79.069 17.0695 79.729 17.5735 80.209 18.2335C80.701 18.8815 80.953 19.6435 80.965 20.5195V20.5555C80.965 20.6515 80.923 20.7355 80.839 20.8075C80.767 20.8675 80.683 20.8975 80.587 20.8975H78.157C78.001 20.8975 77.881 20.8675 77.797 20.8075C77.713 20.7355 77.641 20.6095 77.581 20.4295C77.413 19.8175 77.149 19.3915 76.789 19.1515C76.429 18.8995 75.955 18.7735 75.367 18.7735C73.951 18.7735 73.219 19.5655 73.171 21.1495C73.159 21.4735 73.153 21.9715 73.153 22.6435C73.153 23.3155 73.159 23.8255 73.171 24.1735C73.219 25.7575 73.951 26.5495 75.367 26.5495C75.955 26.5495 76.435 26.4235 76.807 26.1715C77.179 25.9075 77.437 25.4815 77.581 24.8935C77.629 24.7135 77.695 24.5935 77.779 24.5335C77.863 24.4615 77.989 24.4255 78.157 24.4255H80.587C80.695 24.4255 80.785 24.4615 80.857 24.5335C80.941 24.6055 80.977 24.6955 80.965 24.8035C80.953 25.6795 80.701 26.4475 80.209 27.1075C79.729 27.7555 79.069 28.2595 78.229 28.6195C77.389 28.9675 76.441 29.1415 75.385 29.1415ZM87.0877 29.1415C85.5997 29.1415 84.4537 28.7875 83.6497 28.0795C82.8457 27.3715 82.4077 26.3755 82.3357 25.0915C82.3237 24.9355 82.3177 24.6655 82.3177 24.2815C82.3177 23.8975 82.3237 23.6275 82.3357 23.4715C82.4077 22.1995 82.8577 21.2095 83.6857 20.5015C84.5137 19.7815 85.6477 19.4215 87.0877 19.4215C88.5397 19.4215 89.6797 19.7815 90.5077 20.5015C91.3357 21.2095 91.7857 22.1995 91.8577 23.4715C91.8697 23.6275 91.8757 23.8975 91.8757 24.2815C91.8757 24.6655 91.8697 24.9355 91.8577 25.0915C91.7857 26.3755 91.3477 27.3715 90.5437 28.0795C89.7397 28.7875 88.5877 29.1415 87.0877 29.1415ZM87.0877 26.9455C87.6157 26.9455 88.0057 26.7895 88.2577 26.4775C88.5097 26.1535 88.6537 25.6615 88.6897 25.0015C88.7017 24.8815 88.7077 24.6415 88.7077 24.2815C88.7077 23.9215 88.7017 23.6815 88.6897 23.5615C88.6537 22.9135 88.5037 22.4275 88.2397 22.1035C87.9877 21.7795 87.6037 21.6175 87.0877 21.6175C86.0917 21.6175 85.5637 22.2655 85.5037 23.5615L85.4857 24.2815L85.5037 25.0015C85.5277 25.6615 85.6657 26.1535 85.9177 26.4775C86.1817 26.7895 86.5717 26.9455 87.0877 26.9455ZM94.1136 28.9615C93.9816 28.9615 93.8736 28.9195 93.7896 28.8355C93.7056 28.7515 93.6636 28.6435 93.6636 28.5115V20.0515C93.6636 19.9195 93.7056 19.8115 93.7896 19.7275C93.8736 19.6435 93.9816 19.6015 94.1136 19.6015H96.1836C96.3156 19.6015 96.4236 19.6495 96.5076 19.7455C96.6036 19.8295 96.6516 19.9315 96.6516 20.0515V20.7715C97.3116 19.9915 98.1996 19.6015 99.3156 19.6015H100.108C100.24 19.6015 100.348 19.6435 100.432 19.7275C100.516 19.8115 100.558 19.9195 100.558 20.0515V21.9055C100.558 22.0255 100.516 22.1335 100.432 22.2295C100.348 22.3135 100.24 22.3555 100.108 22.3555H98.3616C97.8696 22.3555 97.4856 22.4935 97.2096 22.7695C96.9456 23.0335 96.8136 23.4115 96.8136 23.9035V28.5115C96.8136 28.6435 96.7656 28.7515 96.6696 28.8355C96.5856 28.9195 96.4776 28.9615 96.3456 28.9615H94.1136ZM106.178 29.1415C104.69 29.1415 103.544 28.7875 102.74 28.0795C101.936 27.3715 101.498 26.3755 101.426 25.0915C101.414 24.9355 101.408 24.6655 101.408 24.2815C101.408 23.8975 101.414 23.6275 101.426 23.4715C101.498 22.1995 101.948 21.2095 102.776 20.5015C103.604 19.7815 104.738 19.4215 106.178 19.4215C107.63 19.4215 108.77 19.7815 109.598 20.5015C110.426 21.2095 110.876 22.1995 110.948 23.4715C110.96 23.6275 110.966 23.8975 110.966 24.2815C110.966 24.6655 110.96 24.9355 110.948 25.0915C110.876 26.3755 110.438 27.3715 109.634 28.0795C108.83 28.7875 107.678 29.1415 106.178 29.1415ZM106.178 26.9455C106.706 26.9455 107.096 26.7895 107.348 26.4775C107.6 26.1535 107.744 25.6615 107.78 25.0015C107.792 24.8815 107.798 24.6415 107.798 24.2815C107.798 23.9215 107.792 23.6815 107.78 23.5615C107.744 22.9135 107.594 22.4275 107.33 22.1035C107.078 21.7795 106.694 21.6175 106.178 21.6175C105.182 21.6175 104.654 22.2655 104.594 23.5615L104.576 24.2815L104.594 25.0015C104.618 25.6615 104.756 26.1535 105.008 26.4775C105.272 26.7895 105.662 26.9455 106.178 26.9455ZM113.203 28.9615C113.071 28.9615 112.963 28.9195 112.879 28.8355C112.795 28.7515 112.753 28.6435 112.753 28.5115V20.0515C112.753 19.9195 112.795 19.8115 112.879 19.7275C112.963 19.6435 113.071 19.6015 113.203 19.6015H115.273C115.405 19.6015 115.513 19.6435 115.597 19.7275C115.693 19.8115 115.741 19.9195 115.741 20.0515V20.7355C116.065 20.3395 116.479 20.0215 116.983 19.7815C117.499 19.5415 118.081 19.4215 118.729 19.4215C119.785 19.4215 120.643 19.7815 121.303 20.5015C121.963 21.2095 122.293 22.2055 122.293 23.4895V28.5115C122.293 28.6315 122.251 28.7395 122.167 28.8355C122.083 28.9195 121.975 28.9615 121.843 28.9615H119.575C119.455 28.9615 119.347 28.9195 119.251 28.8355C119.167 28.7395 119.125 28.6315 119.125 28.5115V23.5975C119.125 23.0335 118.987 22.6015 118.711 22.3015C118.435 21.9895 118.039 21.8335 117.523 21.8335C117.019 21.8335 116.623 21.9895 116.335 22.3015C116.047 22.6015 115.903 23.0335 115.903 23.5975V28.5115C115.903 28.6315 115.861 28.7395 115.777 28.8355C115.693 28.9195 115.585 28.9615 115.453 28.9615H113.203ZM127.128 29.1415C126.492 29.1415 125.91 29.0215 125.382 28.7815C124.866 28.5295 124.458 28.1935 124.158 27.7735C123.87 27.3415 123.726 26.8675 123.726 26.3515C123.726 25.5235 124.062 24.8575 124.734 24.3535C125.418 23.8495 126.354 23.5015 127.542 23.3095L129.792 22.9675V22.7155C129.792 22.2595 129.696 21.9235 129.504 21.7075C129.312 21.4915 128.988 21.3835 128.532 21.3835C128.256 21.3835 128.028 21.4315 127.848 21.5275C127.668 21.6235 127.482 21.7555 127.29 21.9235C127.122 22.0675 126.996 22.1635 126.912 22.2115C126.876 22.3075 126.81 22.3555 126.714 22.3555H124.752C124.632 22.3555 124.53 22.3195 124.446 22.2475C124.374 22.1635 124.344 22.0675 124.356 21.9595C124.368 21.6355 124.524 21.2755 124.824 20.8795C125.136 20.4835 125.604 20.1415 126.228 19.8535C126.864 19.5655 127.644 19.4215 128.568 19.4215C130.044 19.4215 131.136 19.7515 131.844 20.4115C132.552 21.0595 132.906 21.9355 132.906 23.0395V28.5115C132.906 28.6315 132.864 28.7395 132.78 28.8355C132.696 28.9195 132.588 28.9615 132.456 28.9615H130.368C130.248 28.9615 130.14 28.9195 130.044 28.8355C129.96 28.7395 129.918 28.6315 129.918 28.5115V27.8815C129.654 28.2535 129.282 28.5595 128.802 28.7995C128.334 29.0275 127.776 29.1415 127.128 29.1415ZM127.974 27.0895C128.526 27.0895 128.97 26.9095 129.306 26.5495C129.654 26.1895 129.828 25.6615 129.828 24.9655V24.7135L128.298 24.9835C127.218 25.1755 126.678 25.5535 126.678 26.1175C126.678 26.4175 126.804 26.6575 127.056 26.8375C127.308 27.0055 127.614 27.0895 127.974 27.0895Z" fill="#EC5863"/>
<path d="M13.9208 5.0589C15.3116 4.61562 16.8712 5.28996 17.4036 6.56444C17.8111 7.5402 17.4978 8.58403 16.7057 9.21921L17.174 10.3794L17.8907 11.1694C18.0543 11.3502 18.2976 11.4403 18.5384 11.4171C19.1875 11.3543 19.8346 11.3658 20.47 11.4441C20.6853 11.4709 20.8972 11.4073 21.0474 11.2662L21.5371 10.8087L21.8796 9.7774C21.5534 9.35342 21.4319 8.79883 21.6046 8.2783C21.8978 7.39591 22.9208 6.95926 23.8514 7.34401C24.653 7.67506 25.1073 8.53552 24.8963 9.32211C24.7623 9.82314 24.399 10.1925 23.9444 10.3692L23.5653 11.5121L23.6758 12.1489C23.7138 12.3679 23.8533 12.5615 24.0526 12.6801C24.7229 13.081 25.3417 13.5666 25.8885 14.1243C26.0722 14.312 26.3411 14.3967 26.5962 14.3526L27.9091 14.1264L29.3788 13.3622C29.3676 12.6553 29.7412 11.9805 30.4211 11.6269C31.4491 11.0926 32.7799 11.4967 33.363 12.5306C33.8893 13.4634 33.6055 14.6149 32.712 15.162C32.0143 15.5885 31.148 15.553 30.4696 15.1605L28.9912 15.9287L28.1766 16.768C27.958 16.9932 27.8866 17.3169 27.9806 17.6236C27.9811 17.6254 27.9815 17.6266 27.982 17.6284C28.1428 18.1568 28.2461 18.6866 28.2969 19.2106C28.3266 19.5228 28.5171 19.8073 28.8076 19.9626L29.9159 20.5552L32.0932 20.9975C32.4665 20.6853 32.9885 20.5418 33.5288 20.6511C34.4974 20.8481 35.1427 21.782 34.9205 22.7026C34.7293 23.491 33.9331 24.0009 33.083 23.8781C32.5032 23.7944 32.0277 23.4491 31.7651 22.9932L29.5737 22.5485L28.2329 22.6763C27.9857 22.7004 27.7733 22.8451 27.678 23.0619C27.2987 23.9174 26.7647 24.7 26.0975 25.3711C25.9317 25.5378 25.8743 25.7805 25.9422 26.0105L26.3099 27.2624L27.1684 28.5252C28.0728 28.4144 29.0275 28.8128 29.5727 29.6149C30.3056 30.6924 30.0237 32.0914 28.9456 32.7521C27.8681 33.4126 26.3689 33.0814 25.6226 32.0167C25.1 31.2714 25.0702 30.3657 25.4586 29.6563L24.5471 28.316L23.4471 27.4398C23.2841 27.3094 23.0659 27.271 22.8731 27.3334C22.659 27.4027 22.4405 27.4641 22.2167 27.517C21.001 27.8043 19.7678 27.8174 18.5887 27.5988C18.4158 27.5672 18.2411 27.6104 18.1124 27.7172L17.5473 28.1874L17.1446 29.196C17.4471 29.636 17.5363 30.1943 17.3334 30.7032C16.9886 31.5667 15.939 31.9468 15.0299 31.5143C14.247 31.1419 13.8417 30.2608 14.0984 29.4887C14.2619 28.9969 14.6462 28.6484 15.1118 28.4969L15.5578 27.379L15.4428 26.3859C14.5701 25.8496 13.788 25.1689 13.142 24.3706L11.6768 24.4773L10.3194 25.1004C10.3521 25.9874 9.90012 26.8206 9.07801 27.2104C7.91634 27.7607 6.45675 27.2181 5.81829 25.9978C5.18001 24.7781 5.60347 23.3432 6.76515 22.7928C7.63447 22.3809 8.67002 22.5809 9.40392 23.2193L10.684 22.6312L11.559 21.7233C11.6162 21.6638 11.6357 21.579 11.6112 21.4986L11.6109 21.4974C11.1551 19.9996 11.1573 18.4959 11.5374 17.1223C11.5578 17.0469 11.5388 16.9647 11.4841 16.9031L10.6839 15.9943L8.98868 15.1131C8.53321 15.2978 7.98704 15.2851 7.50023 15.0318C6.62079 14.5741 6.27995 13.5153 6.77531 12.7107C7.21021 12.0052 8.17008 11.755 8.96525 12.1394C9.47996 12.388 9.81978 12.8392 9.92987 13.3324L11.6251 14.2136L12.8185 14.3478C12.9013 14.3574 12.9809 14.3256 13.0318 14.265C13.5546 13.6359 14.1822 13.0842 14.9 12.6362C15.0969 12.5127 15.2157 12.3033 15.2127 12.0723L15.1971 11.0336L14.6977 9.79735C13.6842 9.70476 12.7533 9.09547 12.366 8.16866C11.8336 6.89418 12.5298 5.50157 13.9208 5.0589Z" fill="#EC5863"/>
<path d="M25.8572 18.1242C24.8671 14.8705 21.35 12.8744 18.0016 13.6657C14.6531 14.457 12.7413 17.7362 13.7314 20.9898C14.7214 24.2435 18.2385 26.2397 21.5869 25.4483C24.9354 24.657 26.8472 21.3779 25.8572 18.1242Z" fill="#F58A97"/>
<path d="M20.9707 23.6001C17.8938 24.3457 14.7043 22.8027 13.4167 20.0912C13.4566 20.3946 13.5211 20.6995 13.6113 21.0041C14.5738 24.25 18.1064 26.2142 21.5019 25.3914C24.8974 24.5687 26.8697 21.2705 25.9073 18.0246C25.817 17.7201 25.7041 17.4269 25.5708 17.1461C25.9559 20.0762 24.0476 22.8545 20.9707 23.6001Z" fill="#F07281"/>
<path d="M11.2918 32.1181C11.0129 31.1941 10.0114 30.6297 9.05477 30.8576C8.09816 31.0854 7.54875 32.0193 7.82763 32.9433C8.1065 33.8673 9.10807 34.4317 10.0647 34.2038C11.0213 33.976 11.5707 33.0422 11.2918 32.1181Z" fill="#EB5569"/>
<path d="M34.0893 26.8979C33.9051 26.2876 33.2436 25.9148 32.6117 26.0653C31.9798 26.2158 31.617 26.8326 31.8012 27.4429C31.9854 28.0533 32.6469 28.426 33.2788 28.2755C33.9106 28.125 34.2735 27.5082 34.0893 26.8979Z" fill="#EB5569"/>
<path d="M30.8115 6.34191C30.5402 5.44292 29.5658 4.89385 28.6351 5.11554C27.7045 5.33722 27.17 6.24571 27.4413 7.1447C27.7126 8.04369 28.687 8.59275 29.6177 8.37107C30.5483 8.14938 31.0829 7.2409 30.8115 6.34191Z" fill="#EB5569"/>
<path d="M20.1663 21.3827C19.9133 20.5446 19.0049 20.0327 18.1372 20.2394C17.2695 20.4461 16.7712 21.293 17.0242 22.1312C17.2771 22.9693 18.1855 23.4812 19.0532 23.2745C19.9209 23.0678 20.4192 22.2209 20.1663 21.3827Z" fill="#EB5569"/>
<path d="M24.2909 19.0628C24.1187 18.4923 23.5004 18.1439 22.9098 18.2846C22.3192 18.4253 21.98 19.0018 22.1522 19.5723C22.3244 20.1427 22.9427 20.4912 23.5333 20.3505C24.1239 20.2098 24.4631 19.6333 24.2909 19.0628Z" fill="#EB5569"/>
<path d="M19.9411 16.7297C19.7965 16.2506 19.2773 15.9581 18.7814 16.0762C18.2855 16.1943 18.0006 16.6784 18.1452 17.1575C18.2898 17.6365 18.809 17.9291 19.3049 17.811C19.8009 17.6928 20.0857 17.2087 19.9411 16.7297Z" fill="#EB5569"/>
</svg>
